<svg width="79" height="79" viewBox="0 0 79 79" fill="none" xmlns="http://www.w3.org/2000/svg">
<path d="M71.7551 1.08769C70.3045 -0.362562 67.959 -0.362562 66.5239 1.08769L59.1015 8.49322C58.7311 8.86349 58.4379 9.31091 58.2528 9.80462L55.8763 16.1302L43.9172 28.1024C36.9577 23.5666 28.594 23.4431 23.7023 28.3493C22.0048 30.0464 20.9247 32.1446 20.4 34.4589C19.829 37.0199 17.4526 39.1953 14.8293 39.3342C10.879 39.5347 7.22175 40.985 4.44414 43.7466C-2.46904 50.6739 -1.17282 63.1707 7.32977 71.6717C15.8324 80.1726 28.3316 81.4686 35.2448 74.5567C38.007 71.7951 39.473 68.1232 39.6581 64.1736C39.797 61.5508 41.9728 59.1902 44.5344 58.604C46.8491 58.0794 48.9477 56.984 50.6452 55.3023C55.5523 50.3962 55.4288 42.0495 50.8921 35.0914L62.8667 23.1191L69.1935 20.7432C69.6873 20.5581 70.1348 20.2649 70.5051 19.8946L77.9121 12.4891C79.3626 11.0389 79.3626 8.69378 77.9121 7.25896L71.7551 1.08769ZM32.0969 39.5039C34.0613 39.5039 35.9453 40.2841 37.3344 41.6729C38.7235 43.0617 39.5038 44.9453 39.5038 46.9094C39.5038 48.8735 38.7235 50.7571 37.3344 52.1459C35.9453 53.5347 34.0613 54.3149 32.0969 54.3149C30.1324 54.3149 28.2484 53.5347 26.8593 52.1459C25.4703 50.7571 24.6899 48.8735 24.6899 46.9094C24.6899 44.9453 25.4703 43.0617 26.8593 41.6729C28.2484 40.2841 30.1324 39.5039 32.0969 39.5039Z" fill="#F55457"/>
</svg>
