<svg width="84" height="84" viewBox="0 0 84 84" fill="none" xmlns="http://www.w3.org/2000/svg">
<g clip-path="url(#clip0_3_37)">
<path d="M81.8836 1.03366C83.2125 2.01804 84 3.59304 84 5.25007V17.0626V60.3751C84 67.6266 76.9453 73.5001 68.25 73.5001C59.5547 73.5001 52.5 67.6266 52.5 60.3751C52.5 53.1235 59.5547 47.2501 68.25 47.2501C70.0875 47.2501 71.8594 47.5126 73.5 48.0048V24.1173L31.5 36.7173V70.8751C31.5 78.1266 24.4453 84.0001 15.75 84.0001C7.05469 84.0001 0 78.1266 0 70.8751C0 63.6235 7.05469 57.7501 15.75 57.7501C17.5875 57.7501 19.3594 58.0126 21 58.5048V32.8126V21.0001C21 18.6868 22.5258 16.636 24.7406 15.9634L77.2406 0.213352C78.832 -0.262429 80.5547 0.0328836 81.8836 1.03366Z" fill="#F0F44D"/>
</g>
<defs>
<clipPath id="clip0_3_37">
<rect width="84" height="84" fill="white"/>
</clipPath>
</defs>
</svg>
