<svg width="83" height="71" viewBox="0 0 83 71" fill="none" xmlns="http://www.w3.org/2000/svg">
<path d="M52.1896 9.081C36.5245 4.20825 20.3518 10.6506 14.2572 23.5801C15.8008 23.5112 17.3969 23.6898 18.9915 24.1858C22.904 25.4028 25.1973 29.2228 24.1112 32.7142L18.8656 49.578C17.7796 53.0693 13.7241 54.9145 9.81157 53.6975C3.28571 51.6675 -0.53279 45.3068 1.2786 39.4835L1.93431 37.3755L3.90143 31.0516L5.86855 24.7277C11.6634 6.09839 33.2798 -3.73688 54.1567 2.75707C75.0335 9.25101 87.257 29.6125 81.4622 48.2418L79.4951 54.5657L77.5279 60.8897L76.8722 62.9976C75.0608 68.8209 68.308 71.8934 61.7822 69.8634C57.8696 68.6464 55.5764 64.8264 56.6624 61.3351L61.9081 44.4712C62.9941 40.9799 67.0495 39.1347 70.9621 40.3517C72.5566 40.8477 73.9765 41.5929 75.2046 42.5384C77.5194 28.4331 67.8546 13.9538 52.1896 9.081Z" fill="#D08DEE"/>
</svg>
