<svg width="49" height="78" viewBox="0 0 49 78" fill="none" xmlns="http://www.w3.org/2000/svg">
<path d="M24.4993 7.31286C24.4993 5.37337 25.2732 3.51331 26.6509 2.14189C28.0287 0.770459 29.8972 0 31.8456 0C33.794 0 35.6625 0.770459 37.0402 2.14189C38.4179 3.51331 39.1919 5.37337 39.1919 7.31286C39.1919 9.25235 38.4179 11.1124 37.0402 12.4838C35.6625 13.8553 33.794 14.6257 31.8456 14.6257C29.8972 14.6257 28.0287 13.8553 26.6509 12.4838C25.2732 11.1124 24.4993 9.25235 24.4993 7.31286ZM19.3721 30.3636C19.2191 30.4245 19.0813 30.4855 18.9283 30.5464L17.7039 31.0796C15.1939 32.1918 13.2655 34.3095 12.3931 36.8995L11.9952 38.0878C11.1381 40.6473 8.36793 42.0185 5.79672 41.1653C3.2255 40.3121 1.84806 37.5546 2.70513 34.9951L3.10306 33.8067C4.84782 28.6116 8.70464 24.3762 13.7246 22.1519L14.949 21.6186C18.1324 20.217 21.576 19.4857 25.0655 19.4857C31.8915 19.4857 38.0441 23.5687 40.6612 29.8304L43.0181 35.4521L46.2934 37.0823C48.7116 38.2859 49.6911 41.211 48.482 43.6181C47.2729 46.0253 44.3344 47.0003 41.9162 45.7968L37.8145 43.7705C36.2381 42.9783 34.9984 41.6681 34.325 40.0379L32.8557 36.5338L29.9019 46.5128L37.4778 54.7398C38.3042 55.6387 38.8858 56.7203 39.1919 57.9087L42.7121 71.9402C43.3702 74.5454 41.7785 77.1964 39.146 77.8515C36.5136 78.5066 33.8658 76.9221 33.2077 74.3017L29.8407 60.8795L19.0201 49.1333C16.755 46.6804 15.9132 43.2525 16.7703 40.0379L19.3568 30.3636H19.3721ZM10.5259 60.6358L14.3521 51.1291C14.6735 51.5861 15.0409 52.0127 15.4235 52.4393L21.6526 59.2037L19.4334 64.7188C19.066 65.6329 18.5151 66.4708 17.811 67.1716L8.36793 76.5717C6.45483 78.4761 3.34794 78.4761 1.43483 76.5717C-0.478277 74.6673 -0.478277 71.5746 1.43483 69.6702L10.5259 60.6358Z" fill="#00CB6D"/>
</svg>
