<svg width="197" height="120" viewBox="0 0 197 120" fill="none" xmlns="http://www.w3.org/2000/svg">
<rect width="197" height="100" rx="20" fill="white"/>
<path d="M38.2385 36.608H40.3665V44H38.2385V36.608ZM39.5185 39.44H42.3185V41.168H39.5185V39.44ZM30.5905 44.576H40.3665V48.64H32.7185V50.416H30.6065V47.104H38.2705V46.224H30.5905V44.576ZM30.6065 49.6H40.7985V51.264H30.6065V49.6ZM32.7505 37.024C33.5185 37.024 34.1958 37.168 34.7825 37.456C35.3798 37.744 35.8492 38.1387 36.1905 38.64C36.5425 39.1413 36.7185 39.7227 36.7185 40.384C36.7185 41.0347 36.5425 41.616 36.1905 42.128C35.8492 42.64 35.3798 43.04 34.7825 43.328C34.1958 43.6053 33.5185 43.744 32.7505 43.744C32.0038 43.744 31.3318 43.6053 30.7345 43.328C30.1478 43.04 29.6785 42.64 29.3265 42.128C28.9852 41.616 28.8145 41.0347 28.8145 40.384C28.8145 39.7227 28.9852 39.1413 29.3265 38.64C29.6785 38.1387 30.1478 37.744 30.7345 37.456C31.3318 37.168 32.0038 37.024 32.7505 37.024ZM32.7665 38.736C32.4038 38.736 32.0785 38.8053 31.7905 38.944C31.5025 39.072 31.2732 39.2587 31.1025 39.504C30.9425 39.7387 30.8625 40.032 30.8625 40.384C30.8625 40.736 30.9425 41.04 31.1025 41.296C31.2732 41.5413 31.5025 41.728 31.7905 41.856C32.0785 41.984 32.4038 42.048 32.7665 42.048C33.1292 42.048 33.4545 41.984 33.7425 41.856C34.0305 41.728 34.2545 41.5413 34.4145 41.296C34.5745 41.04 34.6545 40.736 34.6545 40.384C34.6545 40.032 34.5745 39.7387 34.4145 39.504C34.2545 39.2587 34.0305 39.072 33.7425 38.944C33.4545 38.8053 33.1292 38.736 32.7665 38.736ZM44.8133 37.856H54.1893V39.552H44.8133V37.856ZM43.4373 47.904H56.8453V49.632H43.4373V47.904ZM48.1733 42.816H50.3173V48.768H48.1733V42.816ZM53.4213 37.856H55.5653V39.264C55.5653 39.8827 55.5546 40.5387 55.5333 41.232C55.5226 41.9253 55.4746 42.6933 55.3893 43.536C55.3146 44.3787 55.1759 45.3227 54.9733 46.368L52.8453 46.144C53.1439 44.6613 53.3146 43.3707 53.3573 42.272C53.3999 41.1627 53.4213 40.16 53.4213 39.264V37.856ZM68.348 36.576H70.492V51.44H68.348V36.576ZM58.956 46.256H60.268C61.1427 46.256 61.9693 46.2453 62.748 46.224C63.5267 46.192 64.2893 46.144 65.036 46.08C65.7827 46.0053 66.5453 45.8987 67.324 45.76L67.548 47.472C66.3533 47.6853 65.1747 47.8293 64.012 47.904C62.86 47.968 61.612 48 60.268 48H58.956V46.256ZM58.924 37.84H65.916V43.584H61.116V46.912H58.956V41.904H63.756V39.552H58.924V37.84ZM78.1068 38.032H79.9948V38.384C79.9948 38.832 79.9148 39.2587 79.7548 39.664C79.5948 40.0693 79.3548 40.448 79.0348 40.8C78.7254 41.1413 78.3361 41.4507 77.8668 41.728C77.3974 42.0053 76.8534 42.2347 76.2348 42.416C75.6161 42.5867 74.9281 42.7093 74.1708 42.784L73.4348 41.12C74.0854 41.0667 74.6614 40.976 75.1628 40.848C75.6748 40.7093 76.1121 40.5493 76.4748 40.368C76.8481 40.176 77.1521 39.9733 77.3868 39.76C77.6321 39.5467 77.8134 39.3227 77.9308 39.088C78.0481 38.8427 78.1068 38.608 78.1068 38.384V38.032ZM79.1468 38.032H81.0188V38.384C81.0188 38.6187 81.0774 38.8587 81.1948 39.104C81.3121 39.3387 81.4881 39.5627 81.7228 39.776C81.9681 39.9893 82.2721 40.192 82.6348 40.384C83.0081 40.5653 83.4454 40.72 83.9468 40.848C84.4588 40.976 85.0401 41.0667 85.6908 41.12L84.9548 42.784C84.1974 42.7093 83.5094 42.5867 82.8908 42.416C82.2721 42.2347 81.7281 42.0053 81.2587 41.728C80.8001 41.4507 80.4108 41.1413 80.0908 40.8C79.7814 40.448 79.5468 40.0693 79.3868 39.664C79.2268 39.2587 79.1468 38.832 79.1468 38.384V38.032ZM74.0908 37.184H85.0668V38.864H74.0908V37.184ZM74.4268 46.096H84.6668V51.264H74.4268V46.096ZM82.5868 47.76H76.5068V49.584H82.5868V47.76ZM72.8588 43.312H86.2668V45.008H72.8588V43.312Z" fill="#24AAE9"/>
<path d="M97.9046 45.824C98.9713 45.824 99.8993 45.936 100.689 46.16C101.478 46.384 102.086 46.704 102.513 47.12C102.95 47.536 103.169 48.0373 103.169 48.624C103.169 49.2 102.95 49.696 102.513 50.112C102.086 50.5387 101.478 50.864 100.689 51.088C99.8993 51.312 98.9713 51.424 97.9046 51.424C96.8486 51.424 95.926 51.312 95.1366 51.088C94.3473 50.864 93.734 50.5387 93.2966 50.112C92.87 49.696 92.6566 49.2 92.6566 48.624C92.6566 48.0373 92.87 47.536 93.2966 47.12C93.734 46.704 94.3473 46.384 95.1366 46.16C95.926 45.936 96.8486 45.824 97.9046 45.824ZM97.9046 47.424C97.2433 47.424 96.678 47.4667 96.2086 47.552C95.7393 47.6373 95.382 47.7707 95.1366 47.952C94.902 48.1333 94.7846 48.3573 94.7846 48.624C94.7846 48.8907 94.902 49.1147 95.1366 49.296C95.382 49.4667 95.7393 49.6 96.2086 49.696C96.678 49.7813 97.2433 49.824 97.9046 49.824C98.5766 49.824 99.1473 49.7813 99.6166 49.696C100.086 49.6 100.443 49.4667 100.689 49.296C100.934 49.1147 101.057 48.8907 101.057 48.624C101.057 48.3573 100.934 48.1333 100.689 47.952C100.443 47.7707 100.086 47.6373 99.6166 47.552C99.1473 47.4667 98.5766 47.424 97.9046 47.424ZM92.8166 37.264H102.209V38.928H92.8166V37.264ZM91.3286 43.216H104.657V44.896H91.3286V43.216ZM96.2566 40.624H98.3846V43.632H96.2566V40.624ZM100.961 37.264H103.089V38.48C103.089 39.0667 103.073 39.68 103.041 40.32C103.009 40.96 102.886 41.664 102.673 42.432L100.561 42.224C100.763 41.4667 100.881 40.7947 100.913 40.208C100.945 39.6213 100.961 39.0453 100.961 38.48V37.264ZM106.015 45.12H119.423V46.8H106.015V45.12ZM111.599 45.968H113.727V51.424H111.599V45.968ZM107.535 37.168H109.647V38.848H115.743V37.168H117.839V43.712H107.535V37.168ZM109.647 40.512V42.032H115.743V40.512H109.647ZM120.734 43.248H134.142V44.784H120.734V43.248ZM122.238 45.536H132.558V49.056H124.366V50.32H122.254V47.712H130.462V46.976H122.238V45.536ZM122.254 49.856H132.974V51.296H122.254V49.856ZM122.366 36.848H132.51V40.352H124.494V41.552H122.398V39.008H130.414V38.288H122.366V36.848ZM122.398 41.12H132.782V42.56H122.398V41.12ZM139.124 44.224H152.532V45.888H139.124V44.224ZM144.772 42.656H146.884V44.848H144.772V42.656ZM140.804 41.712H151.124V43.328H140.804V41.712ZM140.804 36.976H150.996V38.592H142.916V42.64H140.804V36.976ZM142.308 39.36H150.676V40.912H142.308V39.36ZM145.812 46.56C147.444 46.56 148.708 46.768 149.604 47.184C150.511 47.6 150.964 48.2027 150.964 48.992C150.964 49.7813 150.511 50.384 149.604 50.8C148.708 51.216 147.444 51.424 145.812 51.424C144.191 51.424 142.927 51.216 142.02 50.8C141.124 50.384 140.676 49.7813 140.676 48.992C140.676 48.2027 141.124 47.6 142.02 47.184C142.927 46.768 144.191 46.56 145.812 46.56ZM145.812 48.112C144.788 48.112 144.031 48.1813 143.54 48.32C143.049 48.4587 142.804 48.6827 142.804 48.992C142.804 49.3013 143.049 49.5253 143.54 49.664C144.031 49.792 144.788 49.856 145.812 49.856C146.836 49.856 147.593 49.792 148.084 49.664C148.575 49.5253 148.82 49.3013 148.82 48.992C148.82 48.6827 148.575 48.4587 148.084 48.32C147.593 48.1813 146.836 48.112 145.812 48.112ZM163.395 36.608H165.523V47.68H163.395V36.608ZM164.931 41.12H167.491V42.88H164.931V41.12ZM153.875 38.16H162.579V39.824H153.875V38.16ZM158.227 40.352C158.941 40.352 159.571 40.4747 160.115 40.72C160.669 40.9547 161.101 41.2907 161.411 41.728C161.72 42.1547 161.875 42.6453 161.875 43.2C161.875 43.7653 161.72 44.2667 161.411 44.704C161.101 45.1307 160.669 45.4667 160.115 45.712C159.571 45.9467 158.941 46.064 158.227 46.064C157.523 46.064 156.893 45.9467 156.339 45.712C155.784 45.4667 155.352 45.1307 155.043 44.704C154.733 44.2667 154.579 43.7653 154.579 43.2C154.579 42.6453 154.733 42.1547 155.043 41.728C155.352 41.2907 155.784 40.9547 156.339 40.72C156.893 40.4747 157.523 40.352 158.227 40.352ZM158.227 41.968C157.757 41.968 157.373 42.0747 157.075 42.288C156.776 42.5013 156.627 42.8107 156.627 43.216C156.627 43.6107 156.776 43.9147 157.075 44.128C157.373 44.3413 157.757 44.448 158.227 44.448C158.707 44.448 159.091 44.3413 159.379 44.128C159.677 43.9147 159.827 43.6107 159.827 43.216C159.827 42.8107 159.677 42.5013 159.379 42.288C159.091 42.0747 158.707 41.968 158.227 41.968ZM157.171 36.592H159.283V38.96H157.171V36.592ZM155.971 49.456H166.051V51.168H155.971V49.456ZM155.971 46.848H158.115V50.192H155.971V46.848ZM46.7928 56.824H56.1368V58.536H46.7928V56.824ZM45.2728 67H58.6808V68.712H45.2728V67ZM55.2728 56.824H57.3848V58.136C57.3848 58.7333 57.3741 59.3733 57.3528 60.056C57.3421 60.7387 57.2888 61.5013 57.1928 62.344C57.0968 63.1867 56.9368 64.152 56.7128 65.24L54.6008 65.016C54.9421 63.512 55.1395 62.2053 55.1928 61.096C55.2461 59.976 55.2728 58.9893 55.2728 58.136V56.824ZM55.6568 60.392V62.008L46.6168 62.488L46.3448 60.68L55.6568 60.392ZM50.0248 63.448H52.1688V67.624H50.0248V63.448ZM70.1836 55.592H72.3116V64.44H70.1836V55.592ZM60.8396 61.864H62.1196C63.2076 61.864 64.1462 61.8533 64.9356 61.832C65.7356 61.8107 66.4556 61.768 67.0956 61.704C67.7462 61.6293 68.3916 61.528 69.0316 61.4L69.2396 63.096C68.5889 63.224 67.9276 63.3253 67.2556 63.4C66.5836 63.464 65.8369 63.5067 65.0156 63.528C64.2049 63.5493 63.2396 63.56 62.1196 63.56H60.8396V61.864ZM60.8396 56.696H67.8636V58.408H62.9516V62.824H60.8396V56.696ZM67.3036 64.6C68.3489 64.6 69.2449 64.7173 69.9916 64.952C70.7489 65.176 71.3356 65.5067 71.7516 65.944C72.1676 66.3813 72.3756 66.904 72.3756 67.512C72.3756 68.12 72.1676 68.6427 71.7516 69.08C71.3356 69.528 70.7489 69.864 69.9916 70.088C69.2449 70.3227 68.3489 70.44 67.3036 70.44C66.2689 70.44 65.3676 70.3227 64.5996 70.088C63.8422 69.864 63.2556 69.528 62.8396 69.08C62.4342 68.6427 62.2316 68.12 62.2316 67.512C62.2316 66.904 62.4342 66.3813 62.8396 65.944C63.2556 65.5067 63.8422 65.176 64.5996 64.952C65.3676 64.7173 66.2689 64.6 67.3036 64.6ZM67.3036 66.248C66.6636 66.248 66.1196 66.296 65.6716 66.392C65.2342 66.4773 64.9036 66.616 64.6796 66.808C64.4662 66.9893 64.3596 67.224 64.3596 67.512C64.3596 67.8 64.4662 68.04 64.6796 68.232C64.9036 68.424 65.2342 68.568 65.6716 68.664C66.1196 68.7493 66.6636 68.792 67.3036 68.792C67.9436 68.792 68.4822 68.7493 68.9196 68.664C69.3569 68.568 69.6876 68.424 69.9116 68.232C70.1356 68.04 70.2476 67.8 70.2476 67.512C70.2476 67.224 70.1356 66.9893 69.9116 66.808C69.6876 66.616 69.3569 66.4773 68.9196 66.392C68.4822 66.296 67.9436 66.248 67.3036 66.248ZM80.7583 60.984H83.3823V62.696H80.7583V60.984ZM75.1423 65.448H76.1663C76.8596 65.448 77.4836 65.4427 78.0383 65.432C78.593 65.4213 79.121 65.3947 79.6223 65.352C80.1343 65.2987 80.6623 65.2293 81.2063 65.144L81.3663 66.856C80.8223 66.952 80.2836 67.0213 79.7503 67.064C79.217 67.1067 78.6623 67.1333 78.0863 67.144C77.5103 67.1547 76.8703 67.16 76.1663 67.16H75.1423V65.448ZM75.1423 57.224H80.6463V58.92H77.1743V66.072H75.1423V57.224ZM76.5823 61.208H80.0863V62.856H76.5823V61.208ZM85.4303 55.592H87.4463V70.408H85.4303V55.592ZM82.3583 55.864H84.3423V69.768H82.3583V55.864ZM94.9491 56.456H96.7891V57.528C96.7891 58.168 96.6984 58.792 96.5171 59.4C96.3464 59.9973 96.0904 60.5627 95.7491 61.096C95.4077 61.6293 94.9864 62.1147 94.4851 62.552C93.9944 62.9787 93.4291 63.3467 92.7891 63.656C92.1491 63.9653 91.4451 64.1947 90.6771 64.344L89.7651 62.568C90.4264 62.4507 91.0291 62.2747 91.5731 62.04C92.1277 61.7947 92.6131 61.5013 93.0291 61.16C93.4451 60.8187 93.7971 60.4507 94.0851 60.056C94.3731 59.6507 94.5864 59.2347 94.7251 58.808C94.8744 58.3707 94.9491 57.944 94.9491 57.528V56.456ZM95.3651 56.456H97.2211V57.528C97.2211 57.9547 97.2904 58.3867 97.4291 58.824C97.5784 59.2613 97.7917 59.6827 98.0691 60.088C98.3571 60.4827 98.7091 60.8453 99.1251 61.176C99.5411 61.5067 100.021 61.7947 100.565 62.04C101.109 62.2747 101.722 62.4507 102.405 62.568L101.493 64.344C100.725 64.1947 100.021 63.9653 99.3811 63.656C98.7411 63.3467 98.1704 62.9787 97.6691 62.552C97.1784 62.1253 96.7571 61.6453 96.4051 61.112C96.0637 60.5787 95.8024 60.008 95.6211 59.4C95.4504 58.792 95.3651 58.168 95.3651 57.528V56.456ZM89.4451 66.872H102.869V68.616H89.4451V66.872ZM105.732 63.224H116.148V64.904H105.732V63.224ZM104.164 67H117.588V68.728H104.164V67ZM105.732 56.68H116.036V58.376H107.892V63.688H105.732V56.68ZM107.236 59.944H115.7V61.592H107.236V59.944ZM127.818 57.16H129.706V57.528C129.706 58.1147 129.578 58.6747 129.322 59.208C129.076 59.7307 128.714 60.2053 128.234 60.632C127.754 61.048 127.151 61.4053 126.426 61.704C125.711 61.992 124.884 62.1893 123.946 62.296L123.162 60.616C123.802 60.5413 124.372 60.4293 124.874 60.28C125.386 60.1307 125.823 59.9493 126.186 59.736C126.559 59.5227 126.863 59.2987 127.098 59.064C127.343 58.8187 127.524 58.568 127.642 58.312C127.759 58.0453 127.818 57.784 127.818 57.528V57.16ZM128.858 57.16H130.73V57.528C130.73 57.784 130.788 58.0453 130.906 58.312C131.023 58.568 131.204 58.8187 131.45 59.064C131.695 59.3093 131.999 59.5387 132.362 59.752C132.724 59.9547 133.156 60.1307 133.658 60.28C134.17 60.4293 134.746 60.5413 135.386 60.616L134.618 62.296C133.668 62.1893 132.836 61.992 132.122 61.704C131.407 61.416 130.804 61.0587 130.314 60.632C129.834 60.2053 129.471 59.7307 129.226 59.208C128.98 58.6747 128.858 58.1147 128.858 57.528V57.16ZM123.802 56.232H134.778V57.912H123.802V56.232ZM122.57 62.968H135.994V64.664H122.57V62.968ZM128.394 64.056H130.522V67.176H128.394V64.056ZM124.122 68.456H134.506V70.168H124.122V68.456ZM124.122 65.896H126.25V69.064H124.122V65.896ZM147.464 55.576H149.592V70.44H147.464V55.576ZM138.024 56.76H140.136V60.376H143.208V56.76H145.32V66.984H138.024V56.76ZM140.136 62.024V65.288H143.208V62.024H140.136Z" fill="black"/>
<path d="M157.856 119.182L143.3 95.3434L171.877 95.0242L157.856 119.182Z" fill="white"/>
</svg>
